<?xml version="1.0" encoding="UTF-8"?>
<svg version="1.1" viewBox="0 0 1024 1024" width="1280" height="1280" xmlns="http://www.w3.org/2000/svg">
<path transform="translate(273,48)" d="m0 0h31l1 54 3 9 5 6v2l4 2 9 5 5 1 75 1 16 3 15 8 13 12 8 13 4 11 2 12v21l18-1 51 1 11 2 10 5 10 9 6 8 4 10 2 9v21l69-1h114l47 1 18 3 16 7 10 7 6 5 9 11 8 13 5 15 2 17 1 174 13 7 16 11 16 13 13 12 7 7 9 11 10 13 13 21 11 22 7 19 7 26 4 25 1 13v22l-2 24-5 24-7 24-9 22-11 20-10 15-10 13-12 14-11 11-11 9-17 13-24 14-21 10-24 8-22 5-21 3-13 1h-25l-26-3-25-6-24-8-22-10-14-8-16-11-16-13-15-14-11-12-10-13-7-10-9-15-8-15-10-25-5-17-5-25-2-17v-38l2-11-147-1h-293l-17-3-15-6-13-9-11-11-9-13-6-14-3-16v-290l3-14 5-12 6-10 9-11 9-8 13-8 17-6 7-1 109-1h124l1-4 1-19 4-13 6-9 4-5 10-7 8-4 8-2 72-1-1-7v-10l-2-10-6-10-8-6-9-3-75-1-16-3-14-7-10-8-7-8-8-14-4-16-1-28 1-27z" fill="#020202"/>
<path transform="translate(87,304)" d="m0 0h721l13 4 10 7 8 8 8 16 1 6v164l-7-1-24-7-1-1-1-38-3-8-5-4-3-1h-202l-7 6-2 4v74l4 6 9 4 16 1-1 3-8 6-5 5-3 2-386 1-6 4-4 6v73l3 6 5 4 3 1 321 1 1 2-4 13-3 1h-444l-13-3-12-7-8-8-6-10-3-7-1-11v-276l1-11 4-10 7-9 7-7 10-6z" fill="#626363"/>
<path transform="translate(757,527)" d="m0 0h19l23 2 27 6 22 8 21 10 13 8 14 10 14 12 15 15 13 17 10 15 10 19 9 24 6 25 3 21v32l-2 18-5 22-8 24-9 19-11 18-12 16-11 12-14 14-14 11-16 10-14 8-26 11h-2l-1-65 2-4 16-8 15-10 13-11 10-10 13-17 9-16 7-16 5-15 3-13 2-16v-27l-3-20-4-16-8-20-11-19-10-13-11-12-11-10-16-11-16-9-15-6-7-1-7 3-5 5-1 3v101l-1 48-7 8-24 24-4-2-29-29-1-3v-145l-4-8-5-4-8-1-12 4-16 8-13 8-13 10-13 12-11 14-10 15-10 21-5 15-4 18-1 10v33l3 19 6 20 8 18 9 15 10 13 11 12 11 10 14 10 16 9 6 4v66l-7-1-21-9-17-9-16-11-13-11-12-11-11-12-13-18-10-17-10-21-9-27-4-21-1-11v-37l3-20 5-21 7-20 10-21 11-17 8-11 12-14 14-14 14-11 15-10 16-9 20-9 15-5 17-4 20-3z" fill="#DC0083"/>
<path transform="translate(702,609)" d="m0 0 2 1 1 130 4 7 48 48 8 4 9-1 8-6 46-46 3-7 1-129 4 1 11 8 10 9 9 9 11 15 9 17 6 18 3 15 1 11v14l-3 21-5 17-10 21-10 14-9 10-8 8-14 10-21 11-12 6-3 8-1 88-1 1-20 2h-24l-18-2-1-1-1-88-3-9-5-2-20-9-18-12-12-11-8-8-11-16-8-16-6-17-3-15-1-9v-15l2-18 6-21 7-16 10-16 12-14 11-10z" fill="#626363"/>
<path transform="translate(91,448)" d="m0 0h202l8 7 3 6v69l-3 7-7 6-5 1h-195l-10-4-3-4-1-4v-74l7-8z" fill="#020202"/>
<path transform="translate(929,608)" d="m0 0 5 2 9 12 9 15 9 19 8 24 5 23 2 16v32l-2 18-5 22-8 24-9 19-11 18-12 16-11 12-14 14-14 11-16 10-14 8-26 11h-2l-1-65 2-4 16-8 15-10 13-11 10-10 13-17 9-16 7-16 5-15 3-13 2-16v-27l-1-8v-25l1-2h-2l1-9h2l1-22v-30z" fill="#DC0083"/>
<path transform="translate(91,336)" d="m0 0h137l7 4 4 6 1 3v70l-4 8-5 4-4 1h-133l-10-4-3-4-1-4v-73l4-6 5-4z" fill="#020202"/>
<path transform="translate(667,336)" d="m0 0h137l6 3 4 5 2 6v69l-4 8-6 4-4 1h-134l-9-6-3-6v-73l4-6 5-4z" fill="#020202"/>
<path transform="translate(371,591)" d="m0 0h204l-1 4-11 17-7 11-1 1h-315v-32z" fill="#B3B4B3"/>
<path transform="translate(475,448)" d="m0 0h75l6 5 4 8v69l-3 7-5 5-6 2h-70l-6-3-5-6-1-2v-73l4-7 5-4z" fill="#020202"/>
<path transform="translate(91,560)" d="m0 0h74l8 6 3 6v71l-3 6-5 5-7 2h-67l-8-3-4-5-2-5v-73l7-8z" fill="#020202"/>
<path transform="translate(347,448)" d="m0 0h74l6 4 4 7 1 2v68l-3 8-6 6-4 1h-72l-6-4-4-5-1-2v-73l4-7 5-4z" fill="#020202"/>
<path transform="translate(283,336)" d="m0 0h73l6 3 4 5 2 6v68l-4 8-6 5-6 1h-68l-7-4-4-5-1-3v-73l4-6 5-4z" fill="#020202"/>
<path transform="translate(539,336)" d="m0 0h74l8 7 3 6v69l-3 6-4 5-9 3h-68l-9-6-3-6v-73l4-6 5-4z" fill="#020202"/>
<path transform="translate(411,336)" d="m0 0h73l7 4 4 6 1 4v66l-3 8-8 7-7 1h-66l-7-4-4-5-1-3v-73l4-6 5-4z" fill="#020202"/>
<path transform="translate(377,239)" d="m0 0h121l35 1 5 3 5 6 1 3v20h-192v-21l5-8 5-3z" fill="#8D8578"/>
<path transform="translate(267,479)" d="m0 0 5 1v30l-1 1-13 1h-146v-32z" fill="#B3B3B2"/>
<path transform="translate(708,479)" d="m0 0h66l10 1v15l-2 2h-23l-23 2-17 3-31 8-5 2h-59l-1-9 1-23z" fill="#B2B3B1"/>
<path transform="translate(925,750)" d="m0 0h2v9l1 10v26l-6 24-8 16-8 11-10 10-13 10-22 10-15 4-8 1-5-2-1-13 17-9 15-10 13-11 10-10 13-17 9-16 7-16 5-15 2-8h2z" fill="#DC0083"/>
<path transform="translate(709,367)" d="m0 0h74l1 1v31l-2 1h-94v-32z" fill="#B3B4B3"/>
<path transform="translate(145,367)" d="m0 0h62l1 1v31l-2 1h-94l-1-9 1-23z" fill="#B1B1B0"/>
<path transform="translate(703,869)" d="m0 0h1v64l-7-1-21-9-17-9-16-11-13-11-10-9 1-3h82z" fill="#DC0083"/>
<path transform="translate(377,239)" d="m0 0h29l5 1 105 1-4 4-13 8-7 2-7 1-128 1-5-2 1-6 4-6 5-3z" fill="#B3B4B3"/>
<path transform="translate(141,591)" d="m0 0 3 1v31l-2 1h-30v-32z" fill="#B0B1AF"/>
<path transform="translate(496,480)" d="m0 0h32v31l-1 1h-31z" fill="#B5B6B5"/>
<path transform="translate(589,367)" d="m0 0 3 1v31l-5 1h-27v-32z" fill="#B0B0AF"/>
<path transform="translate(432,368)" d="m0 0h32v31l-5 1h-27z" fill="#AFAFAE"/>
<path transform="translate(304,368)" d="m0 0h32v31l-5 1h-27z" fill="#AFB0AF"/>
<path transform="translate(397,479)" d="m0 0 3 1v31l-3 1h-29v-32z" fill="#B1B2B1"/>
<path transform="translate(571,591)" d="m0 0h4l-1 4-11 17-7 11-1 1h-315v-1l306-1 2-5 7-8 8-13v-2l-2-2z" fill="#878176"/>
<path transform="translate(783,368)" d="m0 0h1v31l-2 1h-94v-1h82l2-6 7-7 3-2z" fill="#837E75"/>
<path transform="translate(527,480)" d="m0 0h1v31l-1 1h-27v-1l11-1 3-1-2-2 9-6 3-4h2z" fill="#7D7971"/>
<path transform="translate(571,591)" d="m0 0h4l-1 4-11 17-7 11h-8v-2l6-4 5-5 2-7 4-5 3-7h3z" fill="#A5A5A3"/>
<path transform="translate(527,480)" d="m0 0h1v31h-1l-1-10-2 6-3 1-6-1v-2l6-4 3-4h2z" fill="#706E6A"/>
<path transform="translate(113,481)" d="m0 0h4v3h-3v21h2v4l36 1v1h-40z" fill="#E0E0E0"/>
<path transform="translate(561,592)" d="m0 0h10l-3 2-4 9-5 5-4 2 6-11 2-5z" fill="#6B6A67"/>
<path transform="translate(271,482)" d="m0 0h1v17h-2l-1 4-2 4h-9l5-4 7-8z" fill="#78756E"/>
<path transform="translate(558,612)" d="m0 0h3l-1 5-4 6h-8v-2l6-4z" fill="#AAAAA9"/>
<path transform="translate(369,480)" d="m0 0 2 1v20h1l2 8 2 2h-7z" fill="#E3E3E3"/>
<path transform="translate(561,369)" d="m0 0h3v2h-2l1 21 2 4 1 3h-5z" fill="#E0E0E0"/>
<path transform="translate(332,383)" d="m0 0h1v6l-1 6h-11l4-3 5-5z" fill="#79766E"/>
<path transform="translate(588,382)" d="m0 0h1v7l-1 6h-10l4-3 3-3z" fill="#77736D"/>
<path transform="translate(140,607)" d="m0 0h1l-1 12h-9l3-3h2l2-5z" fill="#77746D"/>
<path transform="translate(924,675)" d="m0 0h2v13l-2 2-2-9v-5z" fill="#DC0083"/>
<path transform="translate(460,383)" d="m0 0h1v6l-1 6h-10l2-2 4-2z" fill="#75726C"/>
<path transform="translate(396,496)" d="m0 0 2 2-2 3-1 6h-8l6-7z" fill="#73716B"/>
<path transform="translate(203,387)" d="m0 0h1v8l-7 2v-4l5-5z" fill="#898276"/>
<path transform="translate(782,386)" d="m0 0h1v13l-7-1v-2l3-1z" fill="#B5B6B5"/>
<path transform="translate(113,481)" d="m0 0h4v3h-3v21h2v2h-3z" fill="#DFDFDF"/>
<path transform="translate(526,500)" d="m0 0h1v11l-8-2v-2l5-1 1-5z" fill="#B5B6B5"/>
<path transform="translate(571,591)" d="m0 0h4l-1 4-4 4-1-2h-2l1-4h3z" fill="#9C9D9C"/>
<path transform="translate(559,607)" d="m0 0h1v6l-4 2-2 2-2-4 2-3z" fill="#90887A"/>
<path transform="translate(433,374)" d="m0 0h1v22h3l1 3h-5z" fill="#E0E0E0"/>
<path transform="translate(561,592)" d="m0 0h10l-3 2-2 6-2-2-2 1 1-5z" fill="#7B776F"/>
<path transform="translate(241,615)" d="m0 0h1v5h2v2h15v1h-19z" fill="#E0E0E0"/>
<path transform="translate(113,603)" d="m0 0h1l1 16 2 1v3h-4z" fill="#E0E0E0"/>
<path transform="translate(266,501)" d="m0 0 2 4-1 2h-9l5-4z" fill="#6B6A67"/>
</svg>
